
<svg xmlns="http://www.w3.org/2000/svg" version="1.1" xmlns:xlink="http://www.w3.org/1999/xlink" preserveAspectRatio="none" x="0px" y="0px" width="340px" height="340px" viewBox="0 0 340 340">
<defs>
<g id="rhino_0_Layer9_0_FILL">
<path fill="#0066CC" stroke="none" d="
M 184.55 101.65
Q 193.95 61.75 175.45 32.05 156.95 2.3 121.4 0.15 85.85 -2 54 24.75 50.1 28 46.55 31.5
L 34.65 6.8
Q 24 32.05 28.6 53.3
L 28.65 53.1
Q 28.65 53.19140625 28.65 53.3
L 28.65 53.35
Q 24.05 60.55 20.55 68.35 7.15 38.3 4.05 9.75 -6.25 64.75 9.6 119.3 9.6 119.45 9.6 119.55 9.9 131.6 13.35 142.55 17.1 156.6 37.75 158.45 65.3 161.05 120.9 126.85 123.5 125.2 126.15 123.55 153.95 128.05 134.05 159.55 131.65 161.6 129.3 163.5 84.95 198.95 53.3 188.05 63.5 192.1 75.85 192.85 77.1 192.9 78.35 192.95 81.45 193.05 84.55 192.95 115.3 191.7 143.25 168.25 175.1 141.5 184.55 101.65 Z"/>
</g>
</defs>

<g transform="matrix( 1.7584991455078125, 0, 0, 1.758209228515625, 4,0) ">
<g transform="matrix( 1, 0, 0, 1, 0,0) ">
<use xlink:href="#rhino_0_Layer9_0_FILL"/>
</g>
</g>
</svg>
