<?xml version="1.0" standalone="no"?>
<!DOCTYPE svg PUBLIC "-//W3C//DTD SVG 20010904//EN"
 "http://www.w3.org/TR/2001/REC-SVG-20010904/DTD/svg10.dtd">
<svg version="1.0" xmlns="http://www.w3.org/2000/svg"
 width="193.000000pt" height="193.000000pt" viewBox="0 0 193.000000 193.000000"
 preserveAspectRatio="xMidYMid meet">
<metadata>
Created by potrace 1.11, written by Peter Selinger 2001-2013
</metadata>
<g transform="translate(0.000000,193.000000) scale(0.100000,-0.100000)"
fill="#000000" stroke="none">
<path d="M1005 1909 c-170 -37 -345 -130 -467 -247 -28 -27 -51 -42 -56 -37
-4 6 -30 57 -57 115 -27 58 -51 107 -53 110 -9 13 -51 -103 -67 -185 -10 -53
-14 -179 -6 -222 7 -37 4 -49 -34 -118 l-43 -77 -32 83 c-48 124 -87 251 -104
339 -3 14 -9 46 -14 72 -5 26 -7 50 -4 53 3 3 0 5 -6 5 -6 0 -14 -26 -18 -57
-3 -32 -9 -67 -11 -78 -10 -40 -12 -452 -3 -515 28 -187 24 -167 76 -385 3
-11 7 -38 10 -60 19 -165 40 -233 82 -278 45 -48 108 -75 197 -83 36 -3 55
-11 68 -27 44 -54 85 -159 88 -226 3 -37 6 -42 37 -52 90 -30 152 -38 277 -35
115 3 141 7 225 35 370 124 678 467 774 861 42 174 44 366 6 500 -76 266 -274
463 -513 511 -92 19 -264 18 -352 -2z"/>
</g>
</svg>
