
<svg xmlns="http://www.w3.org/2000/svg" version="1.1" xmlns:xlink="http://www.w3.org/1999/xlink" preserveAspectRatio="none" x="0px" y="0px" width="340px" height="340px" viewBox="0 0 340 340">
<defs>
<linearGradient id="Gradient_1" gradientUnits="userSpaceOnUse" x1="160.22500000000002" y1="177.6125" x2="46.675" y2="18.987499999999997" spreadMethod="pad">
<stop  offset="0%" stop-color="#D90CBF"/>

<stop  offset="100%" stop-color="#D9A70C"/>
</linearGradient>

<g id="Layer10_0_FILL">
<path fill="url(#Gradient_1)" stroke="none" d="
M 184.55 101.65
Q 193.95 61.75 175.45 32.05 156.95 2.3 121.4 0.15 85.85 -2 54 24.75 50.1 28 46.55 31.5
L 34.65 6.8
Q 24 32.05 28.6 53.3
L 28.65 53.1
Q 28.65 53.19140625 28.65 53.3
L 28.65 53.35
Q 24.05 60.55 20.55 68.35 7.15 38.3 4.05 9.75 -6.25 64.75 9.6 119.3 9.6 119.45 9.6 119.55 9.9 131.6 13.35 142.55 17.1 156.6 37.75 158.45 40.051953125 158.6671875 42.55 158.6 69.945703125 158.1923828125 120.9 126.85 123.5 125.2 126.15 123.55 153.95 128.05 134.05 159.55 131.65 161.6 129.3 163.5 84.9810546875 198.9251953125 53.35 188.05 63.53125 192.101953125 75.85 192.85 77.1 192.9 78.35 192.95 81.45 193.05 84.55 192.95 115.3 191.7 143.25 168.25 175.1 141.5 184.55 101.65 Z"/>
</g>

<g id="Layer2_0_FILL">
<path fill="#FFFFFF" stroke="none" d="
M 42.55 158.6
Q 53.3291015625 173.35 53.35 188.05 84.9810546875 198.9251953125 129.3 163.5 131.65 161.6 134.05 159.55 153.95 128.05 126.15 123.55 123.5 125.2 120.9 126.85 69.945703125 158.1923828125 42.55 158.6 Z"/>
</g>

<g id="Layer0_0_FILL">
<path fill="#000000" fill-opacity="0.09803921568627451" stroke="none" d="
M 126.15 123.55
Q 125.85 123.73671875 125.55 123.9 137.394140625 130.616796875 134.9 158.1 153.3146484375 127.9470703125 126.15 123.55 Z"/>
</g>

<path id="Layer1_0_1_STROKES" stroke="#E2E2E2" stroke-width="1" stroke-linejoin="round" stroke-linecap="round" fill="none" d="
M 60.9 161.6
L 65.1 172.1
M 67.15 176.9
L 69.25 181.65
M 60.15 174.25
Q 64.85 175.3 74.45 171.9
M 112.6 153.1
Q 120.2 148.3 127.5 142.55 128.75 141.55 130 140.55
L 126.1 130.05
M 130 140.55
Q 130.3 140.25 130.65 140
M 79.8 170.25
L 84.75 168.25 84.6 163.3 87.65 166.5 97.65 161.5
M 101.45 159.65
Q 105.45 157.5 109.4 155.15
M 130 140.55
L 133.6 150.2
M 106.25 143.9
L 115.3 163"/>
</defs>

<g transform="matrix( 1.7584991455078125, 0, 0, 1.758209228515625, 4,0) ">
<g transform="matrix( 1, 0, 0, 1, 0,0) ">
<use xlink:href="#Layer10_0_FILL"/>
</g>

<g transform="matrix( 1, 0, 0, 1, 0,0) ">
<use xlink:href="#Layer2_0_FILL"/>
</g>

<g transform="matrix( 1, 0, 0, 1, 0,0) ">
<use xlink:href="#Layer1_0_1_STROKES"/>
</g>

<g transform="matrix( 1, 0, 0, 1, 0,0) ">
<use xlink:href="#Layer0_0_FILL"/>
</g>
</g>
</svg>
